<svg width="308" height="116" viewBox="0 0 308 116" fill="none" xmlns="http://www.w3.org/2000/svg">
<rect width="308" height="116" fill="#F5F5F5"/>
<path d="M187.692 40L175.342 27.65L178.429 24.5625L187.692 33.825L207.571 13.9458L210.658 17.0333L187.692 40Z" fill="#462C69"/>
<path d="M1.04545 105V11.9091H65.9545V30.1818H23.5455V49.2727H62.6364V67.5909H23.5455V86.7273H65.9545V105H1.04545ZM80.0455 105V11.9091H118.5C125.47 11.9091 131.485 13.2727 136.545 16C141.636 18.697 145.561 22.4697 148.318 27.3182C151.076 32.1364 152.455 37.7424 152.455 44.1364C152.455 50.5606 151.045 56.1818 148.227 61C145.439 65.7879 141.455 69.5 136.273 72.1364C131.091 74.7727 124.939 76.0909 117.818 76.0909H94.0909V58.3636H113.636C117.03 58.3636 119.864 57.7727 122.136 56.5909C124.439 55.4091 126.182 53.7576 127.364 51.6364C128.545 49.4848 129.136 46.9848 129.136 44.1364C129.136 41.2576 128.545 38.7727 127.364 36.6818C126.182 34.5606 124.439 32.9242 122.136 31.7727C119.833 30.6212 117 30.0455 113.636 30.0455H102.545V105H80.0455ZM180.727 106.182C176.273 106.182 172.318 105.439 168.864 103.955C165.439 102.439 162.727 100.167 160.727 97.1364C158.758 94.0758 157.773 90.2424 157.773 85.6364C157.773 81.7576 158.455 78.4848 159.818 75.8182C161.182 73.1515 163.061 70.9848 165.455 69.3182C167.848 67.6515 170.606 66.3939 173.727 65.5455C176.848 64.6667 180.182 64.0758 183.727 63.7727C187.697 63.4091 190.894 63.0303 193.318 62.6364C195.742 62.2121 197.5 61.6212 198.591 60.8636C199.712 60.0758 200.273 58.9697 200.273 57.5455V57.3182C200.273 54.9848 199.47 53.1818 197.864 51.9091C196.258 50.6364 194.091 50 191.364 50C188.424 50 186.061 50.6364 184.273 51.9091C182.485 53.1818 181.348 54.9394 180.864 57.1818L160.364 56.4545C160.97 52.2121 162.53 48.4242 165.045 45.0909C167.591 41.7273 171.076 39.0909 175.5 37.1818C179.955 35.2424 185.303 34.2727 191.545 34.2727C196 34.2727 200.106 34.803 203.864 35.8636C207.621 36.8939 210.894 38.4091 213.682 40.4091C216.47 42.3788 218.621 44.803 220.136 47.6818C221.682 50.5606 222.455 53.8485 222.455 57.5455V105H201.545V95.2727H201C199.758 97.6364 198.167 99.6364 196.227 101.273C194.318 102.909 192.061 104.136 189.455 104.955C186.879 105.773 183.97 106.182 180.727 106.182ZM187.591 91.6364C189.985 91.6364 192.136 91.1515 194.045 90.1818C195.985 89.2121 197.53 87.8788 198.682 86.1818C199.833 84.4545 200.409 82.4545 200.409 80.1818V73.5455C199.773 73.8788 199 74.1818 198.091 74.4545C197.212 74.7273 196.242 74.9848 195.182 75.2273C194.121 75.4697 193.03 75.6818 191.909 75.8636C190.788 76.0455 189.712 76.2121 188.682 76.3636C186.591 76.697 184.803 77.2121 183.318 77.9091C181.864 78.6061 180.742 79.5152 179.955 80.6364C179.197 81.7273 178.818 83.0303 178.818 84.5455C178.818 86.8485 179.636 88.6061 181.273 89.8182C182.939 91.0303 185.045 91.6364 187.591 91.6364ZM217.534 11.9091H242.67L262.352 50.8636H263.17L282.852 11.9091H307.989L273.943 73.9091V105H251.58V73.9091L217.534 11.9091Z" fill="url(#paint0_linear_0_1)"/>
<rect y="36" width="24" height="8" fill="#F5F5F5"/>
<rect y="73" width="24" height="8" fill="#F5F5F5"/>
<path d="M87.1416 57.9993L63.5 77.8724V38.1273L87.1416 57.9993Z" fill="#452C68" stroke="#F5F5F5" stroke-width="4"/>
<defs>
<linearGradient id="paint0_linear_0_1" x1="152.464" y1="136" x2="152.545" y2="-19" gradientUnits="userSpaceOnUse">
<stop stop-color="#7A4DB7"/>
<stop offset="1" stop-color="#362251"/>
</linearGradient>
</defs>
</svg>
